Coordinates
version=1
nRows=17
nColumns=24
inDegrees=yes

Units are S.I. units (second, meters, Newtons, ...)
Angles are in degrees.

endheader
time	pelvis_tilt	pelvis_list	pelvis_rotation	pelvis_tx	pelvis_ty	pelvis_tz	hip_flexion_r	hip_adduction_r	hip_rotation_r	knee_angle_r	ankle_angle_r	subtalar_angle_r	mtp_angle_r	hip_flexion_l	hip_adduction_l	hip_rotation_l	knee_angle_l	ankle_angle_l	subtalar_angle_l	mtp_angle_l	lumbar_extension	lumbar_bending	lumbar_rotation
      1.88783333	      2.25351123	      2.87143957	     -5.48145570	      1.45552169	      1.02197550	      0.24125994	     15.73647904	     -6.15455794	     -5.39707503	    -56.43999400	      9.52647482	    -16.60022534	     -4.13247150	      9.78946744	      8.65386302	      0.60691084	    -22.79440386	     11.89244958	    -12.40188911	     -1.68992534	     -1.18182514	     -4.60109286	      4.54874168
      1.89200000	      2.19725458	      2.81806181	     -5.33471968	      1.45963910	      1.02228525	      0.24086160	     16.32987226	     -6.01588890	     -5.37754073	    -55.82616233	      9.64454344	    -16.65595932	     -4.22060813	      9.49739581	      8.64892539	      0.77578425	    -22.62925819	     12.01550998	    -12.36075890	     -1.71849231	     -1.23089147	     -4.53543808	      4.22547993
      1.89616667	      2.17042634	      2.77673666	     -5.19931367	      1.46376345	      1.02260994	      0.24049013	     16.88233716	     -5.89384723	     -5.34682262	    -55.18648566	      9.77238137	    -16.67120594	     -4.32367449	      9.17040873	      8.65335719	      0.90696858	    -22.45301888	     12.12256067	    -12.31729471	     -1.75224678	     -1.28099595	     -4.49356591	      3.97461196
      1.90033333	      2.14466975	      2.73364640	     -5.07397438	      1.46793231	      1.02290331	      0.24015133	     17.41943998	     -5.76506233	     -5.30030771	    -54.52070912	      9.89558551	    -16.67376399	     -4.34653208	      8.83890575	      8.65428971	      1.04118595	    -22.26999370	     12.23705679	    -12.28399135	     -1.75840200	     -1.30545266	     -4.44571731	      3.89613604
      1.90450000	      2.09513954	      2.69034856	     -4.94510610	      1.47203978	      1.02312974	      0.23981348	     17.97591095	     -5.63305839	     -5.24609119	    -53.83482841	      9.98018731	    -16.63653067	     -4.36919150	      8.54120396	      8.65462715	      1.18917750	    -22.09972000	     12.35234202	    -12.26514709	     -1.76559783	     -1.32220254	     -4.38715595	      3.75745468
      1.90866667	      2.02977236	      2.63713834	     -4.81254671	      1.47618559	      1.02330859	      0.23948022	     18.53229815	     -5.48906926	     -5.19162209	    -53.11728037	     10.02793564	    -16.57879970	     -4.39221349	      8.26638534	      8.64236094	      1.33629045	    -21.94557577	     12.46500614	    -12.26662682	     -1.77403278	     -1.32461676	     -4.32117983	      3.58084950
      1.91283333	      1.97059910	      2.57917516	     -4.66429151	      1.48025833	      1.02345737	      0.23915022	     19.07216382	     -5.34153917	     -5.14241137	    -52.37824630	     10.04786108	    -16.50589624	     -4.42625519	      8.00048688	      8.62833620	      1.51668161	    -21.82238005	     12.56285343	    -12.28428586	     -1.79187699	     -1.38114991	     -4.26775934	      3.30360756
      1.91700000	      1.89376473	      2.55194009	     -4.53285258	      1.48437556	      1.02355129	      0.23884985	     19.62913013	     -5.22227825	     -5.06318056	    -51.63044040	     10.05915016	    -16.40727969	     -4.46664915	      7.74336845	      8.64504819	      1.68814940	    -21.66431657	     12.63690152	    -12.32012342	     -1.82090257	     -1.36775160	     -4.24373221	      3.04204807
      1.92116667	      1.83327997	      2.49748188	     -4.40521869	      1.48844906	      1.02363657	      0.23857546	     20.15131720	     -5.07280474	     -4.98405849	    -50.85019970	     10.04443175	    -16.27042612	     -4.48037629	      7.48311432	      8.62879706	      1.83839360	    -21.53787353	     12.74758985	    -12.34345842	     -1.83153424	     -1.38749974	     -4.17926016	      2.93466478
      1.92533333	      1.77666849	      2.44682820	     -4.27139162	      1.49258533	      1.02369850	      0.23830340	     20.65384457	     -4.92739568	     -4.89453696	    -50.05590307	     10.00992740	    -16.11938837	     -4.48924838	      7.21067238	      8.62027463	      2.01234167	    -21.40920819	     12.85083677	    -12.38858779	     -1.84334426	     -1.40047223	     -4.12328108	      2.78215954
      1.92950000	      1.69773871	      2.41332399	     -4.13610148	      1.49669906	      1.02370694	      0.23804478	     21.17079254	     -4.80112323	     -4.80359880	    -49.23893769	      9.96500354	    -15.95982412	     -4.49303207	      6.96295936	      8.63234925	      2.21750073	    -21.26834087	     12.91200668	    -12.48941630	     -1.86941777	     -1.38633336	     -4.09611144	      2.54609425
      1.93366667	      1.62226446	      2.35484959	     -4.00904320	      1.50077420	      1.02368350	      0.23781301	     21.66938271	     -4.64521271	     -4.70667521	    -48.39465340	      9.89194976	    -15.75968764	     -4.48992932	      6.73379858	      8.60946297	      2.37228101	    -21.17552428	     13.02198152	    -12.54109355	     -1.87746938	     -1.39274860	     -4.02743399	      2.45601532
      1.93783333	      1.55162378	      2.30316864	     -3.85533859	      1.50483262	      1.02363962	      0.23756697	     22.15329520	     -4.50338504	     -4.62075822	    -47.53781690	      9.79186576	    -15.56891123	     -4.48081002	      6.49681270	      8.59887601	      2.57619826	    -21.07662202	     13.11904851	    -12.60664444	     -1.88613719	     -1.40220919	     -3.97080559	      2.31758196
      1.94200000	      1.47448803	      2.24834840	     -3.71169991	      1.50894490	      1.02357820	      0.23734342	     22.62231268	     -4.35522132	     -4.51903091	    -46.65627890	      9.67494474	    -15.35855342	     -4.46550627	      6.26299101	      8.58370016	      2.77444552	    -20.97757172	     13.20586467	    -12.69956557	     -1.89506059	     -1.39712781	     -3.91202632	      2.16993171
      1.94616667	      1.41573343	      2.21439690	     -3.56993135	      1.51304767	      1.02350431	      0.23714036	     23.06425115	     -4.23300991	     -4.41282299	    -45.76190768	      9.55904758	    -15.16104635	     -4.41888544	      6.00386658	      8.59700379	      3.01588651	    -20.85416106	     13.24468493	    -12.87327582	     -1.91484088	     -1.39877987	     -3.89016622	      1.94044108
      1.95033333	      1.32095857	      2.17057627	     -3.41525694	      1.51709528	      1.02332520	      0.23692734	     23.53994998	     -4.10553545	     -4.31990431	    -44.85849658	      9.41808456	    -14.91443480	     -4.39255814	      5.81298000	      8.58992912	      3.21175175	    -20.79342615	     13.34763496	    -12.94960833	     -1.92087230	     -1.39069930	     -3.83950707	      1.85605532
      1.95450000	      1.25135951	      2.13484937	     -3.26789498	      1.52121471	      1.02320447	      0.23673643	     23.96328210	     -3.98470720	     -4.20943169	    -43.92476052	      9.24984691	    -14.70643734	     -4.31107160	      5.56685703	      8.59956675	      3.46119831	    -20.67290270	     13.37927905	    -13.14522527	     -1.94405146	     -1.39065021	     -3.81221912	      1.64152146
